<!DOCTYPE svg PUBLIC "-//W3C//DTD SVG 1.1//EN" "https://www.w3.org/Graphics/SVG/1.1/DTD/svg11.dtd">
<svg xmlns="http://www.w3.org/2000/svg" id="sfn-svg" class="sfn-workflow-graph" width="242" height="451">
    
    
<g transform="translate(12,18.875)"><g class="nodes"><g class="node-container" transform="translate(128.43749809265137,19)"><g class="node anchor"><circle class="shape" x="-15.875" y="-9" r="25.875"/><text class="label"><tspan xml:space="preserve" text-anchor="middle" alignment-baseline="central">Start</tspan></text></g></g><g class="node-container" transform="translate(128.43749809265137,397)"><g class="node anchor"><circle class="shape" x="-12.175000190734863" y="-9" r="22.175000190734863"/><text class="label"><tspan xml:space="preserve" text-anchor="middle" alignment-baseline="central">End</tspan></text></g></g><g class="node-container" transform="translate(128.43749809265137,82)"><g class="node state Wait NotYetStarted"><rect class="shape" rx="5" ry="5" x="-24.483333587646484" y="-19" width="48.96666717529297" height="38"/><text class="label"><tspan xml:space="preserve" text-anchor="middle" alignment-baseline="central">Wait</tspan></text></g></g><g class="node-container" transform="translate(73.95833206176758,145)"><g class="node state Task NotYetStarted"><rect class="shape" rx="5" ry="5" x="-73.95833206176758" y="-19" width="147.91666412353516" height="38"/><text class="label"><tspan xml:space="preserve" text-anchor="middle" alignment-baseline="central">GetTranscriptionJob</tspan></text></g></g><g class="node-container" transform="translate(73.95833206176758,208)"><g class="node state Choice NotYetStarted"><rect class="shape" rx="5" ry="5" x="-31.03333282470703" y="-19" width="62.06666564941406" height="38"/><text class="label"><tspan xml:space="preserve" text-anchor="middle" alignment-baseline="central">Choice</tspan></text></g></g><g class="node-container" transform="translate(58.95833206176758,334)"><g class="node state Succeed NotYetStarted"><rect class="shape" rx="5" ry="5" x="-34.016666412353516" y="-19" width="68.03333282470703" height="38"/><text class="label"><tspan xml:space="preserve" text-anchor="middle" alignment-baseline="central">Success</tspan></text></g></g><g class="node-container" transform="translate(175.92499780654907,271)"><g class="node state Choice NotYetStarted"><rect class="shape" rx="5" ry="5" x="-41.33333396911621" y="-19" width="82.66666793823242" height="38"/><text class="label"><tspan xml:space="preserve" text-anchor="middle" alignment-baseline="central">Choice (1)</tspan></text></g></g><g class="node-container" transform="translate(175.92499780654907,334)"><g class="node state Fail NotYetStarted"><rect class="shape" rx="5" ry="5" x="-20.958333015441895" y="-19" width="41.91666603088379" height="38"/><text class="label"><tspan xml:space="preserve" text-anchor="middle" alignment-baseline="central">Fail</tspan></text></g></g></g><g class="edges"><g class="edge"><path class="path" style="fill: none; --darkreader-inline-fill: none;" marker-end="url(#arrowhead292)" d="M103.95416450500488,96.1563291841447L98.95485909779866,99.04694098678723C93.95555369059244,101.93755278942979,83.95694287618001,107.7187763947149,78.95763746897379,112.69272153069078C73.95833206176758,117.66666666666666,73.95833206176758,121.83333333333333,73.95833206176756,123.91666666666666L73.95833206176758,126" data-darkreader-inline-fill=""/><defs><marker id="arrowhead292" viewBox="0 0 10 10" refX="9" refY="5" markerUnits="strokeWidth" markerWidth="8" markerHeight="6" orient="auto"><path d="M 0 0 L 10 5 L 0 10 z"/></marker></defs></g><g class="edge"><path class="path" style="fill: none; --darkreader-inline-fill: none;" marker-end="url(#arrowhead293)" d="M128.43749809265137,44.875L128.43749809265134,45.81249999999999C128.43749809265137,46.75,128.43749809265137,48.625,128.43749809265134,51.64583333333333C128.43749809265137,54.666666666666664,128.43749809265137,58.83333333333333,128.43749809265134,60.916666666666664L128.43749809265137,63" data-darkreader-inline-fill=""/><defs><marker id="arrowhead293" viewBox="0 0 10 10" refX="9" refY="5" markerUnits="strokeWidth" markerWidth="8" markerHeight="6" orient="auto"><path d="M 0 0 L 10 5 L 0 10 z"/></marker></defs></g><g class="edge"><path class="path" style="fill: none; --darkreader-inline-fill: none;" marker-end="url(#arrowhead294)" d="M73.95833206176758,164L73.95833206176756,166.08333333333331C73.95833206176758,168.16666666666666,73.95833206176758,172.33333333333331,73.95833206176756,176.5C73.95833206176758,180.66666666666666,73.95833206176758,184.83333333333331,73.95833206176756,186.91666666666666L73.95833206176758,189" data-darkreader-inline-fill=""/><defs><marker id="arrowhead294" viewBox="0 0 10 10" refX="9" refY="5" markerUnits="strokeWidth" markerWidth="8" markerHeight="6" orient="auto"><path d="M 0 0 L 10 5 L 0 10 z"/></marker></defs></g><g class="edge"><path class="path" style="fill: none; --darkreader-inline-fill: none;" marker-end="url(#arrowhead295)" d="M64.91071301414853,227L63.91864952208503,229.0833333333333C62.92658603002154,231.16666666666663,60.94245904589455,235.33333333333331,59.95039555383106,242.66666666666666C58.95833206176757,250,58.95833206176757,260.5,58.958332061767564,271C58.95833206176757,281.5,58.95833206176757,292,58.958332061767564,299.3333333333333C58.95833206176757,306.66666666666663,58.95833206176757,310.8333333333333,58.958332061767564,312.9166666666667L58.95833206176758,315" data-darkreader-inline-fill=""/><defs><marker id="arrowhead295" viewBox="0 0 10 10" refX="9" refY="5" markerUnits="strokeWidth" markerWidth="8" markerHeight="6" orient="auto"><path d="M 0 0 L 10 5 L 0 10 z"/></marker></defs></g><g class="edge"><path class="path" style="fill: none; --darkreader-inline-fill: none;" marker-end="url(#arrowhead296)" d="M102.60158585745191,227L105.74229351048746,229.0833333333333C108.88300116352302,231.16666666666663,115.16441646959414,235.33333333333331,121.90824356911673,239.5C128.6520706686393,243.66666666666666,135.85830956161337,247.83333333333331,139.4614290081004,249.91666666666666L143.06454845458742,252" data-darkreader-inline-fill=""/><defs><marker id="arrowhead296" viewBox="0 0 10 10" refX="9" refY="5" markerUnits="strokeWidth" markerWidth="8" markerHeight="6" orient="auto"><path d="M 0 0 L 10 5 L 0 10 z"/></marker></defs></g><g class="edge"><path class="path" style="fill: none; --darkreader-inline-fill: none;" marker-end="url(#arrowhead297)" d="M58.95833206176758,353L58.958332061767564,355.0833333333333C58.95833206176757,357.16666666666663,58.95833206176757,361.3333333333333,67.17214554712271,367.14059053578274C75.38595903247787,372.9478477382321,91.81358600318816,380.39569547646425,100.0273994885433,384.11961934558036L108.24121297389846,387.84354321469647" data-darkreader-inline-fill=""/><defs><marker id="arrowhead297" viewBox="0 0 10 10" refX="9" refY="5" markerUnits="strokeWidth" markerWidth="8" markerHeight="6" orient="auto"><path d="M 0 0 L 10 5 L 0 10 z"/></marker></defs></g><g class="edge"><path class="path" style="fill: none; --darkreader-inline-fill: none;" marker-end="url(#arrowhead298)" d="M175.92499780654907,290L175.92499780654907,292.0833333333333C175.92499780654907,294.16666666666663,175.92499780654907,298.3333333333333,175.92499780654907,302.5C175.92499780654907,306.66666666666663,175.92499780654907,310.8333333333333,175.92499780654907,312.9166666666667L175.92499780654907,315" data-darkreader-inline-fill=""/><defs><marker id="arrowhead298" viewBox="0 0 10 10" refX="9" refY="5" markerUnits="strokeWidth" markerWidth="8" markerHeight="6" orient="auto"><path d="M 0 0 L 10 5 L 0 10 z"/></marker></defs></g><g class="edge"><path class="path" style="fill: none; --darkreader-inline-fill: none;" marker-end="url(#arrowhead299)" d="M184.9726168541681,252L185.9646803462316,249.91666666666666C186.9567438382951,247.83333333333331,188.94087082242208,243.66666666666666,189.93293431448558,236.33333333333331C190.92499780654907,229,190.92499780654907,218.5,190.92499780654907,207.99999999999997C190.92499780654907,197.5,190.92499780654907,187,190.92499780654907,176.49999999999997C190.92499780654907,166,190.92499780654907,155.5,190.92499780654907,144.99999999999997C190.92499780654907,134.5,190.92499780654907,123.99999999999999,184.59097011884054,115.55701143306516C178.256942431132,107.11402286613033,165.5888870557149,100.72804573226067,159.25485936800638,97.53505716532584L152.92083168029785,94.34206859839101" data-darkreader-inline-fill=""/><defs><marker id="arrowhead299" viewBox="0 0 10 10" refX="9" refY="5" markerUnits="strokeWidth" markerWidth="8" markerHeight="6" orient="auto"><path d="M 0 0 L 10 5 L 0 10 z"/></marker></defs></g><g class="edge"><path class="path" style="fill: none; --darkreader-inline-fill: none;" marker-end="url(#arrowhead300)" d="M175.92499780654907,353L175.92499780654907,355.0833333333333C175.92499780654907,357.16666666666663,175.92499780654907,361.3333333333333,171.0902650155353,366.6237018619175C166.25553222452155,371.9140703905016,156.58606664249402,378.32814078100324,151.75133385148024,381.5351759762541L146.9166010604665,384.74221117150495" data-darkreader-inline-fill=""/><defs><marker id="arrowhead300" viewBox="0 0 10 10" refX="9" refY="5" markerUnits="strokeWidth" markerWidth="8" markerHeight="6" orient="auto"><path d="M 0 0 L 10 5 L 0 10 z"/></marker></defs></g></g></g><style xmlns="http://www.w3.org/1999/xhtml">.node &gt; .shape {stroke: #555555;stroke-width: 0.6px;fill: #FFFFFF;} path {stroke: #555;background-color: #555;stroke-width: 1px;} .node.state.NotYetStarted &gt; .shape,.node.state.Container &gt; .shape {stroke-dasharray: 5 2;} .node.state.Failed &gt; .shape,rect.legend.Failed {fill: #DE322F;} .node.state.CaughtError &gt; .shape,rect.legend.CaughtError {fill: #FFA500;} .node.state.Succeeded &gt; .shape,rect.legend.Succeeded {fill: #2BD62E;} .node.state.InProgress &gt; .shape,rect.legend.InProgress {fill: #53c9ed;} .node.state.Cancelled &gt; .shape,rect.legend.Cancelled {fill: #dddddd;} .node.anchor &gt; .shape {fill: #FFDA75;} .node.state.hovered:not(.selected):not(.NotYetStarted) &gt; .shape,.node.selected &gt; .shape {stroke: #555555;stroke-width: 2px;} .node.state.Container.Failed &gt; .shape {fill: #EE9592;} .node.state.Container.CaughtError &gt; .shape {fill: #FFD27F;} .node.state.Container.Succeeded &gt; .shape {fill: #91EA9A;} .node.state.Container.InProgress &gt; .shape {fill :#A9E4F7;} .node.state.Container.Cancelled &gt; .shape {fill: #EEEEEE;} marker {fill: #555555;} .node.anchor,.node.state.NotYetStarted {cursor: default;} .node.state {cursor: pointer;} tspan .label {font-weight: normal;font-size: 12px;text-shadow: none;} </style></svg>